<svg id="Ebene_1" data-name="Ebene 1" xmlns="http://www.w3.org/2000/svg" xmlns:xlink="http://www.w3.org/1999/xlink" viewBox="0 0 745.93 439.02"><defs><style>.cls-1{fill:none;}.cls-2{clip-path:url(#clip-path);}.cls-3{fill:url(#Unbenannter_Verlauf_4);}.cls-4{clip-path:url(#clip-path-2);}.cls-5{fill:url(#Unbenannter_Verlauf_4-2);}.cls-6{clip-path:url(#clip-path-3);}.cls-7{fill:url(#Unbenannter_Verlauf_4-3);}.cls-8{clip-path:url(#clip-path-4);}.cls-9{fill:url(#Unbenannter_Verlauf_4-4);}.cls-10{clip-path:url(#clip-path-5);}.cls-11{fill:#e1051e;}.cls-12{fill:#ebe8e0;}</style><clipPath id="clip-path"><rect id="SVGID" class="cls-1" x="161.53" y="38.41" width="16.44" height="400.61"/></clipPath><linearGradient id="Unbenannter_Verlauf_4" x1="-533.45" y1="803.89" x2="-532.08" y2="803.89" gradientTransform="matrix(12.01, 0, 0, -12.01, 6569.85, 9895.79)" gradientUnits="userSpaceOnUse"><stop offset="0" stop-color="#e2031f"/><stop offset="0.01" stop-color="#e2031f"/><stop offset="0.97" stop-color="#791d0b"/><stop offset="1" stop-color="#791d0b"/></linearGradient><clipPath id="clip-path-2"><rect id="SVGID-2" data-name="SVGID" class="cls-1" x="255.9" y="48.94" width="16.44" height="302.13"/></clipPath><linearGradient id="Unbenannter_Verlauf_4-2" x1="-530.18" y1="803.51" x2="-528.81" y2="803.51" gradientTransform="matrix(12.01, 0, 0, -12.01, 6624.84, 9852.46)" xlink:href="#Unbenannter_Verlauf_4"/><clipPath id="clip-path-3"><rect id="SVGID-3" data-name="SVGID" class="cls-1" x="509.91" y="38.41" width="16.44" height="400.61"/></clipPath><linearGradient id="Unbenannter_Verlauf_4-3" x1="-525.65" y1="803.89" x2="-524.28" y2="803.89" gradientTransform="matrix(12.01, 0, 0, -12.01, 6824.44, 9895.79)" xlink:href="#Unbenannter_Verlauf_4"/><clipPath id="clip-path-4"><rect id="SVGID-4" data-name="SVGID" class="cls-1" x="571.84" y="77.6" width="16.44" height="302.13"/></clipPath><linearGradient id="Unbenannter_Verlauf_4-4" x1="-524.26" y1="801.12" x2="-522.89" y2="801.12" gradientTransform="matrix(12.01, 0, 0, -12.01, 6869.7, 9852.46)" xlink:href="#Unbenannter_Verlauf_4"/><clipPath id="clip-path-5"><rect id="SVGID-5" data-name="SVGID" class="cls-1" width="745.93" height="439.02"/></clipPath></defs><title>201106_Zeichenfläche 2</title><g class="cls-2"><rect class="cls-3" x="161.53" y="38.41" width="16.44" height="400.61"/></g><g class="cls-4"><rect class="cls-5" x="255.9" y="48.94" width="16.44" height="302.13"/></g><g class="cls-6"><rect class="cls-7" x="509.91" y="38.41" width="16.44" height="400.61"/></g><g class="cls-8"><rect class="cls-9" x="571.84" y="77.6" width="16.44" height="302.13"/></g><g class="cls-10"><path class="cls-11" d="M373,151.14c206,0,373-30.16,373-67.37,0-11.52.16-16.54.16-16.54S515.19,16.39,373,16.39C244.94,16.39-.15,67.23-.15,67.23S0,69.68,0,83.77C0,121,167,151.14,373,151.14"/><path class="cls-12" d="M373,134.75c206,0,373-30.16,373-67.37S579,0,373,0,0,30.16,0,67.38s167,67.37,373,67.37"/></g></svg>