<svg id="Ebene_1" data-name="Ebene 1" xmlns="http://www.w3.org/2000/svg" xmlns:xlink="http://www.w3.org/1999/xlink" viewBox="0 0 994 743.66"><defs><style>.cls-1,.cls-3{fill:none;}.cls-2{clip-path:url(#clip-path);}.cls-3{stroke:#f6f8fc;stroke-linecap:round;stroke-linejoin:round;stroke-width:2px;stroke-dasharray:0 6.01;}</style><clipPath id="clip-path"><rect id="SVGID" class="cls-1" width="993.99" height="743.66"/></clipPath></defs><title>mobil_headerZeichenfläche 2</title><g class="cls-2"><line class="cls-3" x1="634.67" y1="-103" x2="635.46" y2="1031"/><line class="cls-3" x1="17.46" y1="1031" x2="634.67" y2="-103"/><line class="cls-3" x1="-288.54" y1="1031" x2="634.67" y2="-103"/><line class="cls-3" x1="-903.54" y1="1031" x2="634.67" y2="-103"/><line class="cls-3" x1="-1216.54" y1="1031" x2="634.67" y2="-103"/><line class="cls-3" x1="-1522.2" y1="1031" x2="634.67" y2="-103"/><line class="cls-3" x1="-1830.2" y1="1031" x2="634.67" y2="-103"/><line class="cls-3" x1="-2139.2" y1="1031" x2="634.67" y2="-103"/><line class="cls-3" x1="-2446.2" y1="1031" x2="634.67" y2="-103"/><line class="cls-3" x1="326.32" y1="1031" x2="634.67" y2="-103"/><line class="cls-3" x1="-593.29" y1="1031" x2="634.67" y2="-103"/><line class="cls-3" x1="-2748.67" y1="1031" x2="634.67" y2="-103"/><line class="cls-3" x1="-3061.67" y1="1031" x2="634.67" y2="-103"/><line class="cls-3" x1="-3369.67" y1="1031" x2="634.67" y2="-103"/><line class="cls-3" x1="-3675.67" y1="1030" x2="636.67" y2="-104"/><line class="cls-3" x1="-3985.67" y1="1031" x2="634.67" y2="-103"/><line class="cls-3" x1="-4287.67" y1="1031" x2="634.67" y2="-103"/><line class="cls-3" x1="-4601.67" y1="1031" x2="634.67" y2="-103"/><line class="cls-3" x1="-4907.67" y1="1031" x2="634.67" y2="-103"/><line class="cls-3" x1="-5224.67" y1="1031" x2="634.67" y2="-103"/><line class="cls-3" x1="-5528.67" y1="1031" x2="634.67" y2="-103"/><line class="cls-3" x1="-5837.67" y1="1031" x2="634.67" y2="-103"/><line class="cls-3" x1="-6141.67" y1="1031" x2="634.67" y2="-103"/><line class="cls-3" x1="1254.67" y1="1031" x2="637.46" y2="-103"/><line class="cls-3" x1="1560.67" y1="1031" x2="637.46" y2="-103"/><line class="cls-3" x1="2175.67" y1="1031" x2="637.46" y2="-103"/><line class="cls-3" x1="2488.67" y1="1031" x2="637.46" y2="-103"/><line class="cls-3" x1="2794.33" y1="1031" x2="637.46" y2="-103"/><line class="cls-3" x1="3102.33" y1="1031" x2="637.46" y2="-103"/><line class="cls-3" x1="3411.33" y1="1031" x2="637.46" y2="-103"/><line class="cls-3" x1="3718.33" y1="1031" x2="637.46" y2="-103"/><line class="cls-3" x1="945.8" y1="1031" x2="637.46" y2="-103"/><line class="cls-3" x1="1865.41" y1="1031" x2="637.46" y2="-103"/><line class="cls-3" x1="4020.79" y1="1031" x2="637.46" y2="-103"/><line class="cls-3" x1="4333.79" y1="1031" x2="637.46" y2="-103"/><line class="cls-3" x1="4641.79" y1="1031" x2="637.46" y2="-103"/><line class="cls-3" x1="4949.79" y1="1031" x2="637.46" y2="-103"/><line class="cls-3" x1="5257.79" y1="1031" x2="637.46" y2="-103"/><line class="cls-3" x1="5559.79" y1="1031" x2="637.46" y2="-103"/><line class="cls-3" x1="5873.79" y1="1031" x2="637.46" y2="-103"/><line class="cls-3" x1="6179.79" y1="1031" x2="637.46" y2="-103"/><line class="cls-3" x1="6496.79" y1="1031" x2="637.46" y2="-103"/><line class="cls-3" x1="6800.79" y1="1031" x2="637.46" y2="-103"/><line class="cls-3" x1="7109.79" y1="1031" x2="637.46" y2="-103"/><line class="cls-3" x1="7413.79" y1="1031" x2="637.46" y2="-103"/><line class="cls-3" x1="-1152.33" y1="566" x2="2110.67" y2="566"/><line class="cls-3" x1="-1152.33" y1="422" x2="2110.67" y2="422"/><line class="cls-3" x1="-1152.33" y1="220" x2="2110.67" y2="220"/><line class="cls-3" x1="-1152.33" y1="157" x2="2110.67" y2="157"/><line class="cls-3" x1="-1152.33" y1="111" x2="2110.67" y2="111"/><line class="cls-3" x1="-1152.33" y1="76" x2="2110.67" y2="76"/><line class="cls-3" x1="-1152.33" y1="47" x2="2110.67" y2="47"/><line class="cls-3" x1="-1152.33" y1="25" x2="2110.67" y2="25"/><line class="cls-3" x1="-1152.33" y1="7" x2="2110.67" y2="7"/><line class="cls-3" x1="-1152.33" y1="303" x2="2110.67" y2="303"/></g></svg>