<svg id="Ebene_1" data-name="Ebene 1" xmlns="http://www.w3.org/2000/svg" viewBox="0 0 798.1 629.12"><defs><style>.cls-1{fill:#bc0a23;}.cls-2{fill:#e1051e;}.cls-3{fill:#f6f8fc;}.cls-4{fill:#ebe8e0;}</style></defs><title>201106_Zeichenfläche 3</title><polygon class="cls-1" points="485.85 612.61 473.64 628.12 473.64 283.95 485.85 284.04 485.85 612.61"/><polygon class="cls-2" points="473.64 627.96 462.13 628.12 462.13 284.04 473.64 284.13 473.64 627.96"/><polygon class="cls-1" points="84.85 618.04 72.64 629.12 72.64 282.95 84.85 283.04 84.85 618.04"/><polygon class="cls-2" points="72.64 628.96 61.13 629.12 61.13 282.04 72.64 282.13 72.64 628.96"/><polygon class="cls-1" points="769.89 285.85 762.13 295.01 762.13 48.49 769.89 41.54 769.89 285.85"/><polygon class="cls-2" points="762.13 295.01 755.09 295.1 755.09 55.47 762.13 48.56 762.13 295.01"/><path class="cls-3" d="M487.47,300.26,0,298.1v-17l487.47,2.16L798.1.57v14Z"/><polygon class="cls-4" points="798.1 0.57 511.78 0 0 281.08 487.47 283.24 798.1 0.57"/><polyline class="cls-2" points="487.47 283.24 798.1 0.57 798.1 14.59 487.47 300.26"/></svg>