<svg id="Ebene_1" data-name="Ebene 1" xmlns="http://www.w3.org/2000/svg" xmlns:xlink="http://www.w3.org/1999/xlink" viewBox="0 0 3000 749.98"><defs><style>.cls-1,.cls-3{fill:none;}.cls-2{clip-path:url(#clip-path);}.cls-3{stroke:#f6f8fc;stroke-linecap:round;stroke-linejoin:round;stroke-width:2px;stroke-dasharray:0 6.01;}</style><clipPath id="clip-path"><rect id="SVGID" class="cls-1" x="0.08" y="1" width="2999.92" height="748.98"/></clipPath></defs><title>201106_Zeichenfläche 3</title><g class="cls-2"><line class="cls-3" x1="1639.04" y1="-201.99" x2="1639.83" y2="931.97"/><line class="cls-3" x1="1021.85" y1="931.97" x2="1639.04" y2="-201.99"/><line class="cls-3" x1="715.86" y1="931.97" x2="1639.04" y2="-201.99"/><line class="cls-3" x1="100.88" y1="931.97" x2="1639.04" y2="-201.99"/><line class="cls-3" x1="-212.11" y1="931.97" x2="1639.04" y2="-201.99"/><line class="cls-3" x1="-517.77" y1="931.97" x2="1639.04" y2="-201.99"/><line class="cls-3" x1="-825.76" y1="931.97" x2="1639.04" y2="-201.99"/><line class="cls-3" x1="-1134.75" y1="931.97" x2="1639.04" y2="-201.99"/><line class="cls-3" x1="-1441.74" y1="931.97" x2="1639.04" y2="-201.99"/><line class="cls-3" x1="1330.71" y1="931.97" x2="1639.04" y2="-201.99"/><line class="cls-3" x1="411.12" y1="931.97" x2="1639.04" y2="-201.99"/><line class="cls-3" x1="-1744.2" y1="931.97" x2="1639.04" y2="-201.99"/><line class="cls-3" x1="-2057.19" y1="931.97" x2="1639.04" y2="-201.99"/><line class="cls-3" x1="-2365.18" y1="931.97" x2="1639.04" y2="-201.99"/><line class="cls-3" x1="-2673.17" y1="931.97" x2="1639.04" y2="-201.99"/><line class="cls-3" x1="-2981.17" y1="931.97" x2="1639.04" y2="-201.99"/><line class="cls-3" x1="-3283.16" y1="931.97" x2="1639.04" y2="-201.99"/><line class="cls-3" x1="-3597.15" y1="931.97" x2="1639.04" y2="-201.99"/><line class="cls-3" x1="-3903.14" y1="931.97" x2="1639.04" y2="-201.99"/><line class="cls-3" x1="-4220.13" y1="931.97" x2="1639.04" y2="-201.99"/><line class="cls-3" x1="-4524.12" y1="931.97" x2="1639.04" y2="-201.99"/><line class="cls-3" x1="-4833.12" y1="931.97" x2="1639.04" y2="-201.99"/><line class="cls-3" x1="-5137.11" y1="931.97" x2="1639.04" y2="-201.99"/><line class="cls-3" x1="2259.02" y1="931.97" x2="1641.83" y2="-201.99"/><line class="cls-3" x1="2565.01" y1="931.97" x2="1641.83" y2="-201.99"/><line class="cls-3" x1="3180" y1="931.97" x2="1641.83" y2="-201.99"/><line class="cls-3" x1="3492.99" y1="931.97" x2="1641.83" y2="-201.99"/><line class="cls-3" x1="3798.64" y1="931.97" x2="1641.83" y2="-201.99"/><line class="cls-3" x1="4106.63" y1="931.97" x2="1641.83" y2="-201.99"/><line class="cls-3" x1="4415.62" y1="931.97" x2="1641.83" y2="-201.99"/><line class="cls-3" x1="4722.62" y1="931.97" x2="1641.83" y2="-201.99"/><line class="cls-3" x1="1950.17" y1="931.97" x2="1641.83" y2="-201.99"/><line class="cls-3" x1="2869.75" y1="931.97" x2="1641.83" y2="-201.99"/><line class="cls-3" x1="5025.07" y1="931.97" x2="1641.83" y2="-201.99"/><line class="cls-3" x1="5338.06" y1="931.97" x2="1641.83" y2="-201.99"/><line class="cls-3" x1="5646.06" y1="931.97" x2="1641.83" y2="-201.99"/><line class="cls-3" x1="5954.05" y1="931.97" x2="1641.83" y2="-201.99"/><line class="cls-3" x1="6262.04" y1="931.97" x2="1641.83" y2="-201.99"/><line class="cls-3" x1="6564.03" y1="931.97" x2="1641.83" y2="-201.99"/><line class="cls-3" x1="6878.02" y1="931.97" x2="1641.83" y2="-201.99"/><line class="cls-3" x1="7184.01" y1="931.97" x2="1641.83" y2="-201.99"/><line class="cls-3" x1="7501" y1="931.97" x2="1641.83" y2="-201.99"/><line class="cls-3" x1="7805" y1="931.97" x2="1641.83" y2="-201.99"/><line class="cls-3" x1="8113.99" y1="931.97" x2="1641.83" y2="-201.99"/><line class="cls-3" x1="8417.98" y1="931.97" x2="1641.83" y2="-201.99"/></g><line class="cls-3" x1="1" y1="728.98" x2="2998.12" y2="728.98"/><line class="cls-3" x1="1" y1="466.99" x2="2998.12" y2="466.99"/><line class="cls-3" x1="1" y1="322.99" x2="2998.12" y2="322.99"/><line class="cls-3" x1="1" y1="229.99" x2="2998.12" y2="229.99"/><line class="cls-3" x1="1" y1="167" x2="2998.12" y2="167"/><line class="cls-3" x1="1" y1="121" x2="2998.12" y2="121"/><line class="cls-3" x1="1" y1="86" x2="2998.12" y2="86"/><line class="cls-3" x1="1" y1="57" x2="2998.12" y2="57"/><line class="cls-3" x1="1" y1="35" x2="2998.12" y2="35"/><line class="cls-3" x1="1" y1="17" x2="2998.12" y2="17"/><line class="cls-3" x1="1" y1="1" x2="2998.12" y2="1"/></svg>